<svg width="45" height="40" viewBox="0 0 45 40" fill="none" xmlns="http://www.w3.org/2000/svg">
<rect x="0.404297" y="0.285156" width="43.8299" height="39.7208" rx="8.93034" fill="#323142"/>
<mask id="path-2-inside-1_1_16676" fill="white">
<path d="M29.2818 21.3617H22.9422V27.7906H20.4123V21.3617H14.1025V19.0699H20.4123V12.6113H22.9422V19.0699H29.2818V21.3617Z"/>
</mask>
<path d="M29.2818 21.3617H22.9422V27.7906H20.4123V21.3617H14.1025V19.0699H20.4123V12.6113H22.9422V19.0699H29.2818V21.3617Z" fill="black"/>
<path d="M29.2818 21.3617V25.4708H33.3908V21.3617H29.2818ZM22.9422 21.3617V17.2527H18.8332V21.3617H22.9422ZM22.9422 27.7906V31.8996H27.0513V27.7906H22.9422ZM20.4123 27.7906H16.3033V31.8996H20.4123V27.7906ZM20.4123 21.3617H24.5214V17.2527H20.4123V21.3617ZM14.1025 21.3617H9.99349V25.4708H14.1025V21.3617ZM14.1025 19.0699V14.9609H9.99349V19.0699H14.1025ZM20.4123 19.0699V23.179H24.5214V19.0699H20.4123ZM20.4123 12.6113V8.50228H16.3033V12.6113H20.4123ZM22.9422 12.6113H27.0513V8.50228H22.9422V12.6113ZM22.9422 19.0699H18.8332V23.179H22.9422V19.0699ZM29.2818 19.0699H33.3908V14.9609H29.2818V19.0699ZM29.2818 17.2527H22.9422V25.4708H29.2818V17.2527ZM18.8332 21.3617V27.7906H27.0513V21.3617H18.8332ZM22.9422 23.6815H20.4123V31.8996H22.9422V23.6815ZM24.5214 27.7906V21.3617H16.3033V27.7906H24.5214ZM20.4123 17.2527H14.1025V25.4708H20.4123V17.2527ZM18.2116 21.3617V19.0699H9.99349V21.3617H18.2116ZM14.1025 23.179H20.4123V14.9609H14.1025V23.179ZM24.5214 19.0699V12.6113H16.3033V19.0699H24.5214ZM20.4123 16.7204H22.9422V8.50228H20.4123V16.7204ZM18.8332 12.6113V19.0699H27.0513V12.6113H18.8332ZM22.9422 23.179H29.2818V14.9609H22.9422V23.179ZM25.1727 19.0699V21.3617H33.3908V19.0699H25.1727Z" fill="white" mask="url(#path-2-inside-1_1_16676)"/>
</svg>
