<svg width="27" height="31" viewBox="0 0 27 31" fill="none" xmlns="http://www.w3.org/2000/svg">
<g clip-path="url(#clip0_1_11532)">
<path d="M25.5304 24.2323C25.0713 25.2811 24.5279 26.2464 23.8983 27.1339C23.0401 28.3438 22.3374 29.1813 21.7959 29.6464C20.9564 30.4098 20.0569 30.8007 19.0938 30.8229C18.4024 30.8229 17.5685 30.6284 16.5979 30.2337C15.624 29.8409 14.7291 29.6464 13.9108 29.6464C13.0526 29.6464 12.1322 29.8409 11.1477 30.2337C10.1617 30.6284 9.36734 30.8341 8.76003 30.8544C7.83643 30.8934 6.91582 30.4913 5.99689 29.6464C5.41039 29.1406 4.67678 28.2734 3.79796 27.045C2.85505 25.7332 2.07985 24.212 1.47254 22.4777C0.822139 20.6044 0.496094 18.7905 0.496094 17.0344C0.496094 15.0227 0.935693 13.2877 1.8162 11.8338C2.50821 10.6659 3.42882 9.74467 4.58103 9.06838C5.73325 8.39209 6.97821 8.04746 8.31894 8.02541C9.05254 8.02541 10.0146 8.24979 11.2101 8.69077C12.4022 9.13323 13.1676 9.35761 13.5032 9.35761C13.7542 9.35761 14.6045 9.09525 16.046 8.57219C17.4092 8.08711 18.5598 7.88626 19.5023 7.96538C22.0563 8.16919 23.9751 9.16473 25.2512 10.9583C22.967 12.3268 21.8371 14.2436 21.8596 16.7025C21.8802 18.6178 22.5829 20.2116 23.9639 21.4771C24.5897 22.0645 25.2887 22.5184 26.0663 22.8408C25.8977 23.3244 25.7196 23.7877 25.5304 24.2323ZM19.6728 1.44036C19.6728 2.94156 19.1182 4.34323 18.0126 5.6406C16.6784 7.18291 15.0647 8.07414 13.3147 7.93351C13.2924 7.75341 13.2795 7.56386 13.2795 7.36468C13.2795 5.92353 13.914 4.38121 15.0407 3.12016C15.6032 2.48166 16.3187 1.95076 17.1862 1.52726C18.052 1.11007 18.8708 0.879353 19.641 0.839844C19.6634 1.04053 19.6728 1.24123 19.6728 1.44034V1.44036Z" fill="#323142"/>
</g>
<defs>
<clipPath id="clip0_1_11532">
<rect width="25.5702" height="30.0172" fill="white" transform="translate(0.496094 0.839844)"/>
</clipPath>
</defs>
</svg>
