<svg width="56" height="29" viewBox="0 0 56 29" fill="none" xmlns="http://www.w3.org/2000/svg">
<path d="M13.3081 15.6458C13.3081 16.0693 13.2798 16.4505 13.2234 16.7893H4.64717C4.71776 17.6363 5.01422 18.2999 5.53655 18.7798C6.05889 19.2598 6.70122 19.4998 7.46355 19.4998C8.56469 19.4998 9.34819 19.0269 9.81406 18.081H13.0116C12.6728 19.2104 12.0234 20.1421 11.0634 20.8762C10.1035 21.5962 8.92468 21.9562 7.52708 21.9562C6.3977 21.9562 5.38126 21.7092 4.47776 21.2151C3.58838 20.7068 2.88958 19.9939 2.38136 19.0763C1.88726 18.1587 1.64021 17.0999 1.64021 15.8999C1.64021 14.6859 1.88726 13.62 2.38136 12.7024C2.87546 11.7848 3.5672 11.0789 4.45659 10.5848C5.34597 10.0907 6.36947 9.84366 7.52708 9.84366C8.64234 9.84366 9.6376 10.0836 10.5129 10.5636C11.4022 11.0436 12.0869 11.7283 12.5669 12.6177C13.061 13.4929 13.3081 14.5023 13.3081 15.6458ZM10.2376 14.7988C10.2235 14.0365 9.94818 13.4294 9.41172 12.9777C8.87527 12.5118 8.21882 12.2789 7.44237 12.2789C6.70828 12.2789 6.08712 12.5047 5.5789 12.9565C5.0848 13.3941 4.78128 14.0082 4.66835 14.7988H10.2376ZM14.7096 15.8576C14.7096 14.6717 14.9426 13.62 15.4084 12.7024C15.8884 11.7848 16.5308 11.0789 17.3354 10.5848C18.1542 10.0907 19.0648 9.84366 20.0671 9.84366C20.9424 9.84366 21.7047 10.0201 22.3541 10.373C23.0176 10.726 23.547 11.1707 23.9423 11.7071V10.0342H26.9281V21.7656H23.9423V20.0504C23.5611 20.601 23.0317 21.0598 22.3541 21.4268C21.6906 21.7797 20.9212 21.9562 20.0459 21.9562C19.0577 21.9562 18.1542 21.7021 17.3354 21.1939C16.5308 20.6857 15.8884 19.9727 15.4084 19.0551C14.9426 18.1234 14.7096 17.0575 14.7096 15.8576ZM23.9423 15.8999C23.9423 15.18 23.8011 14.5659 23.5188 14.0576C23.2364 13.5353 22.8553 13.14 22.3753 12.8718C21.8953 12.5894 21.38 12.4483 20.8294 12.4483C20.2789 12.4483 19.7707 12.5824 19.3048 12.8506C18.8389 13.1188 18.4578 13.5141 18.1613 14.0365C17.8789 14.5447 17.7378 15.1517 17.7378 15.8576C17.7378 16.5634 17.8789 17.1846 18.1613 17.721C18.4578 18.2434 18.8389 18.6457 19.3048 18.9281C19.7848 19.2104 20.293 19.3516 20.8294 19.3516C21.38 19.3516 21.8953 19.2175 22.3753 18.9492C22.8553 18.6669 23.2364 18.2716 23.5188 17.7634C23.8011 17.2411 23.9423 16.6199 23.9423 15.8999ZM33.2752 12.4695V18.1446C33.2752 18.5398 33.3669 18.8292 33.5505 19.0128C33.7481 19.1822 34.0728 19.2669 34.5246 19.2669H35.901V21.7656H34.0375C31.5388 21.7656 30.2894 20.5515 30.2894 18.1234V12.4695H28.8918V10.0342H30.2894V7.13315H33.2752V10.0342H35.901V12.4695H33.2752ZM40.9979 6.09554V21.7656H38.0333V6.09554H40.9979ZM55.1501 10.0342L47.8868 27.3137H44.7316L47.2727 21.4692L42.5717 10.0342H45.8963L48.9244 18.2293L51.9949 10.0342H55.1501Z" fill="#6C5FBC"/>
</svg>
