<svg width="24" height="19" viewBox="0 0 24 19" fill="none" xmlns="http://www.w3.org/2000/svg">
<path d="M6.28037 1.08282C10.142 0.747134 14.0255 0.747133 17.8871 1.08282L19.7476 1.24455C20.9861 1.35221 22.0469 2.09096 22.5965 3.14767C22.6668 3.28286 22.6141 3.44653 22.4846 3.52674L14.7654 8.30527C13.1099 9.33013 11.0224 9.35163 9.34605 8.36109L1.5753 3.76929C1.44976 3.6951 1.39213 3.54239 1.44871 3.40799C1.95153 2.21356 3.08198 1.36085 4.41988 1.24455L6.28037 1.08282Z" fill="#6C5FBC"/>
<path d="M1.44239 5.83713C1.25025 5.7236 1.00509 5.84578 0.982699 6.06782C0.670116 9.16689 0.74577 12.2953 1.20966 15.3802C1.45421 17.0064 2.7815 18.2532 4.41988 18.3956L6.28037 18.5573C10.142 18.893 14.0255 18.893 17.8871 18.5573L19.7476 18.3956C21.386 18.2532 22.7133 17.0064 22.9578 15.3802C23.4352 12.2054 23.5014 8.98452 23.1565 5.79697C23.1323 5.57335 22.8829 5.45343 22.6917 5.57182L15.738 9.87646C13.4982 11.263 10.6739 11.2921 8.40598 9.95198L1.44239 5.83713Z" fill="#6C5FBC"/>
</svg>
