<svg width="23" height="19" viewBox="0 0 23 19" fill="none" xmlns="http://www.w3.org/2000/svg">
<path fill-rule="evenodd" clip-rule="evenodd" d="M0.579345 5.31053C0.242524 8.29949 0.257538 11.7467 0.726229 14.7235C0.985566 16.3707 2.39308 17.6334 4.13051 17.7777L5.94629 17.9284C9.73243 18.2428 13.54 18.2428 17.3262 17.9284L19.1419 17.7777C20.8794 17.6334 22.2869 16.3707 22.5462 14.7235C23.0149 11.7467 23.0299 8.29968 22.6931 5.31071C22.6496 4.96419 22.6006 4.61814 22.5462 4.27267C22.2869 2.62553 20.8794 1.36279 19.1419 1.21854L17.3261 1.06779C13.54 0.753446 9.73244 0.753446 5.94629 1.06779L4.13051 1.21854C2.39308 1.36279 0.985566 2.62553 0.726229 4.27267C0.671845 4.61808 0.622884 4.96407 0.579345 5.31053ZM6.10247 2.78379C9.78469 2.47808 13.4877 2.47808 17.17 2.78379L18.9857 2.93455C19.8927 3.00985 20.6274 3.669 20.7628 4.52881C20.7768 4.6181 20.7905 4.70743 20.8038 4.7968L14.1177 8.34447C12.5744 9.16335 10.6979 9.16335 9.15462 8.34447L2.46861 4.79684C2.48191 4.70746 2.49559 4.61811 2.50965 4.52881C2.64503 3.669 3.37975 3.00985 4.28669 2.93455L6.10247 2.78379ZM21.0245 6.65015C21.2577 9.25425 21.1705 11.878 20.7628 14.4674C20.6274 15.3272 19.8927 15.9864 18.9857 16.0617L17.17 16.2124C13.4878 16.5181 9.78469 16.5181 6.10247 16.2124L4.28669 16.0617C3.37975 15.9864 2.64503 15.3272 2.50965 14.4674C2.10196 11.878 2.01472 9.25428 2.24793 6.65019L8.27877 9.85019C10.3667 10.9581 12.9056 10.9581 14.9936 9.85019L21.0245 6.65015Z" fill="#C2C3CB"/>
</svg>
