<svg width="23" height="21" viewBox="0 0 23 21" fill="none" xmlns="http://www.w3.org/2000/svg">
<path fill-rule="evenodd" clip-rule="evenodd" d="M21.2948 2.08844C21.6204 1.76282 21.6204 1.23488 21.2948 0.909257C20.9692 0.583633 20.4412 0.583633 20.1156 0.909257L2.32764 18.6972C2.00202 19.0228 2.00202 19.5508 2.32764 19.8764C2.65327 20.202 3.18121 20.202 3.50683 19.8764L6.67186 16.7114C8.19085 17.4264 9.94036 17.8971 11.8112 17.8971C14.7952 17.8971 17.4704 16.6997 19.394 15.2233C20.3576 14.4837 21.1534 13.6586 21.7157 12.8485C22.2623 12.0608 22.6508 11.1963 22.6508 10.3928C22.6508 9.58937 22.2623 8.72489 21.7157 7.93714C21.1534 7.12701 20.3576 6.30191 19.394 5.56232C19.1026 5.33866 18.7939 5.12139 18.4695 4.91372L21.2948 2.08844ZM17.2583 6.12497L15.2895 8.09369C15.7261 8.75276 15.9803 9.54311 15.9803 10.3928C15.9803 12.6953 14.1137 14.5619 11.8112 14.5619C10.9615 14.5619 10.1711 14.3077 9.51208 13.8712L7.93704 15.4462C9.12164 15.9288 10.435 16.2295 11.8112 16.2295C14.3533 16.2295 16.6809 15.2035 18.3787 13.9004C19.2257 13.2503 19.8952 12.5468 20.3456 11.8977C20.8116 11.2263 20.9831 10.7011 20.9831 10.3928C20.9831 10.0845 20.8116 9.55934 20.3456 8.88792C19.8952 8.23888 19.2257 7.53533 18.3787 6.88523C18.0305 6.61801 17.6558 6.36244 17.2583 6.12497ZM10.7328 12.6505C11.0593 12.8068 11.425 12.8943 11.8112 12.8943C13.1927 12.8943 14.3127 11.7743 14.3127 10.3928C14.3127 10.0067 14.2251 9.64092 14.0689 9.31437L10.7328 12.6505Z" fill="#6C5FBC"/>
<path d="M11.8112 2.88853C12.9589 2.88853 14.061 3.06568 15.0921 3.36771C15.2905 3.42582 15.3496 3.67412 15.2034 3.82029L14.2867 4.73699C14.218 4.80575 14.1183 4.8333 14.0236 4.81149C13.3127 4.64795 12.5716 4.55616 11.8112 4.55616C9.26916 4.55616 6.94152 5.58221 5.24376 6.88523C4.39672 7.53533 3.72722 8.23888 3.27681 8.88792C2.81085 9.55934 2.6393 10.0845 2.6393 10.3928C2.6393 10.7011 2.81085 11.2263 3.27681 11.8977C3.67017 12.4646 4.23063 13.073 4.93052 13.651C5.05932 13.7574 5.07159 13.9521 4.95347 14.0703L4.16534 14.8584C4.06493 14.9588 3.90473 14.9676 3.79593 14.8764C3.02551 14.2303 2.38252 13.534 1.90677 12.8485C1.36009 12.0608 0.97168 11.1963 0.97168 10.3928C0.97168 9.58937 1.36009 8.72489 1.90677 7.93714C2.46899 7.12701 3.2648 6.30191 4.22844 5.56232C6.15204 4.08597 8.82727 2.88853 11.8112 2.88853Z" fill="#6C5FBC"/>
<path d="M11.8112 6.22378C11.9429 6.22378 12.0732 6.22988 12.2018 6.24183C12.4207 6.26217 12.4999 6.52384 12.3445 6.67926L10.9967 8.02699C10.2704 8.27699 9.69538 8.85203 9.44538 9.57835L8.09765 10.9261C7.94223 11.0815 7.68055 11.0023 7.66022 10.7834C7.64827 10.6548 7.64217 10.5245 7.64217 10.3928C7.64217 8.09033 9.50871 6.22378 11.8112 6.22378Z" fill="#6C5FBC"/>
</svg>
