<svg width="23" height="21" viewBox="0 0 23 21" fill="none" xmlns="http://www.w3.org/2000/svg">
<path fill-rule="evenodd" clip-rule="evenodd" d="M20.8466 2.08747C21.1722 1.76184 21.1722 1.2339 20.8466 0.90828C20.5209 0.582657 19.993 0.582657 19.6674 0.90828L1.8794 18.6962C1.55378 19.0219 1.55378 19.5498 1.8794 19.8754C2.20503 20.2011 2.73297 20.2011 3.05859 19.8754L6.22362 16.7104C7.74261 17.4254 9.49212 17.8962 11.363 17.8962C14.3469 17.8962 17.0222 16.6987 18.9458 15.2224C19.9094 14.4828 20.7052 13.6577 21.2674 12.8475C21.8141 12.0598 22.2025 11.1953 22.2025 10.3919C22.2025 9.5884 21.8141 8.72392 21.2674 7.93617C20.7052 7.12604 19.9094 6.30094 18.9458 5.56135C18.6543 5.33768 18.3457 5.12042 18.0213 4.91275L20.8466 2.08747ZM16.81 6.124L14.8413 8.09272C15.2778 8.75179 15.532 9.54214 15.532 10.3919C15.532 12.6944 13.6655 14.5609 11.363 14.5609C10.5133 14.5609 9.72291 14.3067 9.06384 13.8702L7.4888 15.4452C8.6734 15.9278 9.98677 16.2285 11.363 16.2285C13.905 16.2285 16.2327 15.2025 17.9304 13.8995C18.7775 13.2494 19.447 12.5458 19.8974 11.8968C20.3633 11.2253 20.5349 10.7001 20.5349 10.3919C20.5349 10.0836 20.3633 9.55836 19.8974 8.88694C19.447 8.23791 18.7775 7.53435 17.9304 6.88426C17.5823 6.61703 17.2076 6.36146 16.81 6.124ZM10.2845 12.6495C10.6111 12.8058 10.9768 12.8933 11.363 12.8933C12.7445 12.8933 13.8644 11.7734 13.8644 10.3919C13.8644 10.0057 13.7769 9.63994 13.6206 9.31339L10.2845 12.6495Z" fill="#005A64" fill-opacity="0.35"/>
<path d="M11.363 2.88756C12.5107 2.88756 13.6127 3.06471 14.6439 3.36674C14.8423 3.42484 14.9014 3.67315 14.7552 3.81931L13.8385 4.73601C13.7697 4.80477 13.6701 4.83232 13.5753 4.81052C12.8645 4.64697 12.1233 4.55518 11.363 4.55518C8.82092 4.55518 6.49328 5.58123 4.79552 6.88426C3.94848 7.53435 3.27898 8.23791 2.82856 8.88694C2.36261 9.55836 2.19106 10.0836 2.19106 10.3919C2.19106 10.7001 2.36261 11.2253 2.82856 11.8968C3.22193 12.4636 3.78239 13.072 4.48228 13.6501C4.61107 13.7564 4.62335 13.9512 4.50523 14.0693L3.7171 14.8574C3.61669 14.9578 3.45649 14.9666 3.34769 14.8754C2.57727 14.2293 1.93427 13.5331 1.45853 12.8475C0.91185 12.0598 0.523438 11.1953 0.523438 10.3919C0.523438 9.5884 0.91185 8.72392 1.45853 7.93617C2.02075 7.12604 2.81655 6.30094 3.7802 5.56135C5.7038 4.085 8.37903 2.88756 11.363 2.88756Z" fill="#005A64" fill-opacity="0.35"/>
<path d="M11.363 6.2228C11.4947 6.2228 11.625 6.22891 11.7536 6.24086C11.9724 6.26119 12.0516 6.52287 11.8962 6.67829L10.5485 8.02602C9.82218 8.27601 9.24714 8.85106 8.99714 9.57737L7.64941 10.9251C7.49399 11.0805 7.23231 11.0013 7.21198 10.7824C7.20003 10.6538 7.19392 10.5236 7.19392 10.3919C7.19392 8.08935 9.06047 6.2228 11.363 6.2228Z" fill="#005A64" fill-opacity="0.35"/>
</svg>
