<svg width="22" height="19" viewBox="0 0 22 19" fill="none" xmlns="http://www.w3.org/2000/svg">
<path fill-rule="evenodd" clip-rule="evenodd" d="M0.0214844 6.66375C0.0214844 3.27625 2.99334 0.667969 6.48165 0.667969C8.2798 0.667969 9.86206 1.5111 10.9975 2.60205C12.1329 1.5111 13.7152 0.667969 15.5133 0.667969C19.0016 0.667969 21.9735 3.27625 21.9735 6.66375C21.9735 8.98423 20.9839 11.0249 19.6129 12.7498C18.2443 14.4717 16.4541 15.9331 14.74 17.1207C14.0852 17.5742 13.4229 17.9926 12.8167 18.3013C12.2475 18.5912 11.593 18.8568 10.9975 18.8568C10.402 18.8568 9.74747 18.5912 9.17827 18.3013C8.57208 17.9926 7.90974 17.5742 7.25503 17.1207C5.54091 15.9331 3.75066 14.4717 2.38204 12.7498C1.01106 11.0249 0.0214844 8.98423 0.0214844 6.66375ZM6.48165 2.54957C3.87344 2.54957 1.90309 4.46767 1.90309 6.66375C1.90309 8.42429 2.65044 10.0634 3.85505 11.579C5.06202 13.0976 6.68602 14.4374 8.32655 15.574C8.94732 16.004 9.53203 16.37 10.0322 16.6247C10.5693 16.8982 10.8804 16.9752 10.9975 16.9752C11.1146 16.9752 11.4257 16.8982 11.9628 16.6247C12.463 16.37 13.0477 16.004 13.6684 15.574C15.309 14.4374 16.933 13.0976 18.1399 11.579C19.3445 10.0634 20.0919 8.42429 20.0919 6.66375C20.0919 4.46767 18.1215 2.54957 15.5133 2.54957C14.0154 2.54957 12.6167 3.44449 11.7433 4.58035C11.5652 4.81196 11.2896 4.94769 10.9975 4.94769C10.7053 4.94769 10.4298 4.81196 10.2517 4.58035C9.37831 3.44449 7.97959 2.54957 6.48165 2.54957Z" fill="#323142"/>
</svg>
