<svg width="22" height="21" viewBox="0 0 22 21" fill="none" xmlns="http://www.w3.org/2000/svg">
<path fill-rule="evenodd" clip-rule="evenodd" d="M21.633 12.4821V20.3612H17.032V12.9997C17.032 11.1593 16.3994 9.89402 14.7315 9.89402C13.4663 9.89402 12.7186 10.7567 12.3735 11.5619C12.2585 11.8494 12.201 12.252 12.201 12.6546V20.3612H7.60001C7.60001 20.3612 7.65752 7.8811 7.60001 6.61584H12.201V8.57125C12.201 8.57125 12.201 8.62875 12.1435 8.62875H12.201V8.57125C12.8336 7.65106 13.8689 6.27077 16.3419 6.27077C19.3325 6.27077 21.633 8.28369 21.633 12.4821ZM2.88347 0.00195312C1.33063 0.00195312 0.29541 1.03717 0.29541 2.35995C0.29541 3.68271 1.27312 4.71795 2.82595 4.71795H2.88347C4.49381 4.71795 5.47152 3.68272 5.47152 2.35995C5.41401 1.03717 4.4363 0.00195312 2.88347 0.00195312ZM0.526056 20.3612H5.06954V6.61586H0.526056V20.3612Z" fill="#081420"/>
</svg>
