<svg width="19" height="24" viewBox="0 0 19 24" fill="none" xmlns="http://www.w3.org/2000/svg">
<path d="M7.79716 16.8346C7.79716 15.8183 8.62102 14.9944 9.63731 14.9944C10.6536 14.9944 11.4774 15.8183 11.4774 16.8346C11.4774 17.8508 10.6536 18.6747 9.63731 18.6747C8.62102 18.6747 7.79716 17.8508 7.79716 16.8346Z" fill="#C2C3CB"/>
<path fill-rule="evenodd" clip-rule="evenodd" d="M4.26612 10.2065L3.87915 6.7238C3.82953 6.27728 3.82953 5.82665 3.87915 5.38013L3.90708 5.12877C4.20332 2.46254 6.29937 0.352933 8.96363 0.0394899C9.41119 -0.0131633 9.86337 -0.0131633 10.3109 0.03949C12.9752 0.352933 15.0712 2.46254 15.3675 5.12877L15.3954 5.38013C15.445 5.82665 15.445 6.27728 15.3954 6.7238L15.0084 10.2065L15.8507 10.2738C17.179 10.3798 18.2636 11.3783 18.4789 12.6932C18.928 15.4359 18.928 18.2333 18.4789 20.9759C18.2636 22.2908 17.179 23.2893 15.8507 23.3953L14.0153 23.5419C11.1013 23.7745 8.17337 23.7745 5.25934 23.5419L3.42395 23.3953C2.0957 23.2893 1.01111 22.2908 0.795796 20.9759C0.346714 18.2333 0.346714 15.4359 0.795796 12.6932C1.01111 11.3783 2.0957 10.3798 3.42395 10.2738L4.26612 10.2065ZM9.17864 1.86703C9.48335 1.83118 9.79121 1.83118 10.0959 1.86703C11.9098 2.08043 13.3369 3.51672 13.5386 5.33198L13.5665 5.58334C13.6011 5.8948 13.6011 6.20913 13.5665 6.52059L13.1725 10.0665C10.8181 9.91487 8.45642 9.91488 6.10202 10.0665L5.70803 6.52059C5.67343 6.20913 5.67343 5.8948 5.70803 5.58334L5.73596 5.33198C5.93766 3.51672 7.36472 2.08043 9.17864 1.86703ZM13.8689 11.9616C11.0523 11.7367 8.22234 11.7367 5.40578 11.9616L3.57038 12.1081C3.0859 12.1468 2.69029 12.511 2.61175 12.9906C2.19492 15.5363 2.19492 18.1328 2.61175 20.6785C2.69029 21.1582 3.0859 21.5223 3.57038 21.561L5.40578 21.7075C8.22234 21.9324 11.0523 21.9324 13.8689 21.7075L15.7043 21.561C16.1888 21.5223 16.5844 21.1582 16.6629 20.6785C17.0798 18.1328 17.0798 15.5363 16.6629 12.9906C16.5844 12.511 16.1888 12.1468 15.7043 12.1081L13.8689 11.9616Z" fill="#C2C3CB"/>
</svg>
