<svg width="20" height="25" viewBox="0 0 20 25" fill="none" xmlns="http://www.w3.org/2000/svg">
<path fill-rule="evenodd" clip-rule="evenodd" d="M4.12607 7.39698L4.56143 11.3152L3.68042 11.3856C2.45187 11.4837 1.44868 12.4072 1.24953 13.6235C0.790523 16.4267 0.790523 19.2859 1.24953 22.0891C1.44868 23.3053 2.45187 24.2288 3.68042 24.3269L5.57909 24.4785C8.57676 24.7178 11.5887 24.7178 14.5864 24.4785L16.4851 24.3269C17.7136 24.2288 18.7168 23.3053 18.916 22.0891C19.375 19.2859 19.375 16.4267 18.916 13.6235C18.7168 12.4072 17.7136 11.4837 16.4851 11.3856L15.6039 11.3152L16.0393 7.39698C16.0906 6.93507 16.0906 6.4689 16.0393 6.007L16.0104 5.74697C15.704 2.98884 13.5357 0.806505 10.7796 0.482257C10.3166 0.427789 9.8488 0.427789 9.38582 0.482257C6.62972 0.806505 4.46142 2.98883 4.15496 5.74697L4.12607 6.007C4.07475 6.4689 4.07475 6.93507 4.12607 7.39698ZM10.5571 2.37279C10.2419 2.33571 9.92345 2.33571 9.60824 2.37279C7.73179 2.59355 6.25554 4.07935 6.04689 5.95719L6.018 6.21721C5.9822 6.5394 5.9822 6.86457 6.018 7.18676L6.46064 11.1706C8.87286 11.0158 11.2925 11.0158 13.7047 11.1705L14.1474 7.18676C14.1832 6.86457 14.1832 6.5394 14.1474 6.21721L14.1185 5.95719C13.9098 4.07935 12.4336 2.59355 10.5571 2.37279ZM10.0827 15.9527C9.0314 15.9527 8.17914 16.8049 8.17914 17.8563C8.17914 18.9076 9.0314 19.7598 10.0827 19.7598C11.134 19.7598 11.9863 18.9076 11.9863 17.8563C11.9863 16.8049 11.134 15.9527 10.0827 15.9527Z" fill="#6C5FBC"/>
</svg>
