<svg width="26" height="26" viewBox="0 0 26 26" fill="none" xmlns="http://www.w3.org/2000/svg">
<path d="M17.8963 22.2336H7.42572C4.28455 22.2336 2.19043 20.663 2.19043 16.9983V9.66889C2.19043 6.00418 4.28455 4.43359 7.42572 4.43359H17.8963C21.0375 4.43359 23.1316 6.00418 23.1316 9.66889V16.9983C23.1316 20.663 21.0375 22.2336 17.8963 22.2336Z" stroke="#22C55E" stroke-width="1.57059" stroke-miterlimit="10" stroke-linecap="round" stroke-linejoin="round"/>
<path d="M12.6617 16.4757C14.3965 16.4757 15.8029 15.0694 15.8029 13.3345C15.8029 11.5997 14.3965 10.1934 12.6617 10.1934C10.9269 10.1934 9.52051 11.5997 9.52051 13.3345C9.52051 15.0694 10.9269 16.4757 12.6617 16.4757Z" stroke="#22C55E" stroke-width="1.57059" stroke-miterlimit="10" stroke-linecap="round" stroke-linejoin="round"/>
<path d="M5.85645 10.7168V15.9521" stroke="#22C55E" stroke-width="1.57059" stroke-miterlimit="10" stroke-linecap="round" stroke-linejoin="round"/>
<path d="M19.4668 10.7168V15.9521" stroke="#22C55E" stroke-width="1.57059" stroke-miterlimit="10" stroke-linecap="round" stroke-linejoin="round"/>
</svg>
