<svg width="26" height="27" viewBox="0 0 26 27" fill="none" xmlns="http://www.w3.org/2000/svg">
<path d="M15.9993 21.6851C17.7033 22.6178 19.2019 21.4873 18.876 19.509L18.2909 15.957L20.7696 13.4414C22.1482 12.0423 21.5786 10.2091 19.6708 9.9205L16.2453 9.40226L14.7209 6.18647C13.867 4.38513 12.013 4.36576 11.1575 6.17048L9.62555 9.40226L6.19999 9.9205C4.29484 10.2087 3.72066 12.0403 5.10119 13.4414L7.57994 15.957L6.99479 19.509C6.66935 21.4845 8.16507 22.6191 9.87149 21.6851L12.9354 20.008L15.9993 21.6851Z" fill="#6C5FBC"/>
<mask id="mask0_1_16751" style="mask-type:luminance" maskUnits="userSpaceOnUse" x="4" y="4" width="18" height="19">
<path d="M15.9993 21.6851C17.7033 22.6178 19.2019 21.4873 18.876 19.509L18.2909 15.957L20.7696 13.4414C22.1482 12.0423 21.5786 10.2091 19.6708 9.9205L16.2453 9.40226L14.7209 6.18647C13.867 4.38513 12.013 4.36576 11.1575 6.17048L9.62555 9.40226L6.19999 9.9205C4.29484 10.2087 3.72066 12.0403 5.10119 13.4414L7.57994 15.957L6.99479 19.509C6.66935 21.4845 8.16507 22.6191 9.87149 21.6851L12.9354 20.008L15.9993 21.6851Z" fill="white"/>
</mask>
<g mask="url(#mask0_1_16751)">
</g>
</svg>
