<svg width="26" height="26" viewBox="0 0 26 26" fill="none" xmlns="http://www.w3.org/2000/svg">
<path d="M13.3524 2.77494L13.321 2.84823L10.2845 9.89494H7.30039C6.58839 9.89494 5.9078 10.0415 5.29004 10.3033L7.12239 5.92659L7.16427 5.82188L7.23757 5.65435C7.25851 5.59153 7.27945 5.52871 7.31086 5.47635C8.68251 2.30376 10.2322 1.58129 13.3524 2.77494Z" stroke="#936DFF" stroke-width="1.57059" stroke-linecap="round" stroke-linejoin="round"/>
<path d="M18.9957 10.1048C18.5245 9.95821 18.0219 9.89539 17.5194 9.89539H10.2842L13.3206 2.84868L13.3521 2.77539C13.5091 2.82774 13.6557 2.90104 13.8128 2.96386L16.1268 3.93763C17.4147 4.47163 18.3151 5.02657 18.8596 5.69668C18.9643 5.82233 19.0481 5.93751 19.1214 6.07363C19.2156 6.22021 19.2889 6.3668 19.3308 6.52386C19.3727 6.6181 19.4041 6.71233 19.425 6.7961C19.7077 7.67563 19.5402 8.7541 18.9957 10.1048Z" stroke="#936DFF" stroke-width="1.57059" stroke-linecap="round" stroke-linejoin="round"/>
<path d="M22.6303 15.0061V17.0479C22.6303 17.2573 22.6198 17.4667 22.6093 17.6761C22.4104 21.3304 20.3686 23.1732 16.4945 23.1732H8.32744C8.07615 23.1732 7.82485 23.1522 7.58403 23.1208C4.25438 22.901 2.47438 21.121 2.2545 17.7913C2.22309 17.5505 2.20215 17.2992 2.20215 17.0479V15.0061C2.20215 12.9015 3.47956 11.0901 5.30144 10.3048C5.92968 10.0431 6.5998 9.89648 7.3118 9.89648H17.5311C18.0441 9.89648 18.5467 9.96978 19.0074 10.1059C21.0911 10.7446 22.6303 12.6921 22.6303 15.0061Z" stroke="#936DFF" stroke-width="1.57059" stroke-linecap="round" stroke-linejoin="round"/>
<path d="M7.12208 5.92773L5.28972 10.3044C3.46784 11.0897 2.19043 12.9011 2.19043 15.0057V11.9379C2.19043 8.96421 4.30549 6.48268 7.12208 5.92773Z" stroke="#936DFF" stroke-width="1.57059" stroke-linecap="round" stroke-linejoin="round"/>
<path d="M22.6277 11.9367V15.0046C22.6277 12.7011 21.099 10.7431 19.0049 10.1148C19.5494 8.75367 19.7064 7.68567 19.4446 6.79567C19.4237 6.70144 19.3923 6.6072 19.3504 6.52344C21.2979 7.52861 22.6277 9.59132 22.6277 11.9367Z" stroke="#936DFF" stroke-width="1.57059" stroke-linecap="round" stroke-linejoin="round"/>
</svg>
