<svg width="51" height="51" viewBox="0 0 51 51" fill="none" xmlns="http://www.w3.org/2000/svg">
<rect x="0.532227" y="0.359375" width="50.2588" height="50.2588" rx="25.1294" fill="#F4F0FF"/>
<path d="M26.3524 14.7749L26.321 14.8482L23.2845 21.8949H20.3004C19.5884 21.8949 18.9078 22.0415 18.29 22.3033L20.1224 17.9266L20.1643 17.8219L20.2376 17.6544C20.2585 17.5915 20.2795 17.5287 20.3109 17.4764C21.6825 14.3038 23.2322 13.5813 26.3524 14.7749Z" stroke="#936DFF" stroke-width="1.57059" stroke-linecap="round" stroke-linejoin="round"/>
<path d="M31.9957 22.1048C31.5245 21.9582 31.0219 21.8954 30.5194 21.8954H23.2842L26.3206 14.8487L26.3521 14.7754C26.5091 14.8277 26.6557 14.901 26.8128 14.9639L29.1268 15.9376C30.4147 16.4716 31.3151 17.0266 31.8596 17.6967C31.9643 17.8223 32.0481 17.9375 32.1214 18.0736C32.2156 18.2202 32.2889 18.3668 32.3308 18.5239C32.3727 18.6181 32.4041 18.7123 32.425 18.7961C32.7077 19.6756 32.5402 20.7541 31.9957 22.1048Z" stroke="#936DFF" stroke-width="1.57059" stroke-linecap="round" stroke-linejoin="round"/>
<path d="M35.6303 27.0061V29.0479C35.6303 29.2573 35.6198 29.4667 35.6093 29.6761C35.4104 33.3304 33.3686 35.1732 29.4945 35.1732H21.3274C21.0761 35.1732 20.8249 35.1522 20.584 35.1208C17.2544 34.901 15.4744 33.121 15.2545 29.7913C15.2231 29.5505 15.2021 29.2992 15.2021 29.0479V27.0061C15.2021 24.9015 16.4796 23.0901 18.3014 22.3048C18.9297 22.0431 19.5998 21.8965 20.3118 21.8965H30.5311C31.0441 21.8965 31.5467 21.9698 32.0074 22.1059C34.0911 22.7446 35.6303 24.6921 35.6303 27.0061Z" stroke="#936DFF" stroke-width="1.57059" stroke-linecap="round" stroke-linejoin="round"/>
<path d="M20.1221 17.9277L18.2897 22.3044C16.4678 23.0897 15.1904 24.9011 15.1904 27.0057V23.9379C15.1904 20.9642 17.3055 18.4827 20.1221 17.9277Z" stroke="#936DFF" stroke-width="1.57059" stroke-linecap="round" stroke-linejoin="round"/>
<path d="M35.6277 23.9367V27.0046C35.6277 24.7011 34.099 22.7431 32.0049 22.1148C32.5494 20.7537 32.7064 19.6857 32.4446 18.7957C32.4237 18.7014 32.3923 18.6072 32.3504 18.5234C34.2979 19.5286 35.6277 21.5913 35.6277 23.9367Z" stroke="#936DFF" stroke-width="1.57059" stroke-linecap="round" stroke-linejoin="round"/>
</svg>
